{"title":"One Piece - 626 [HD 720p] [ENG SUBBED] [GWC].mkv","uid":9381787,"size":79001032,"categoryP":"video","categoryS":"tv_shows","magnet":"?xt=urn:btih:ef546ec45d98a484907f4ea327ad9d31b2d6225e&amp;dn=One+Piece+-+626+%5BHD+720p%5D+%5BENG+SUBBED%5D+%5BGWC%5D.mkv&amp;tr=udp%3A%2F%2Ftracker.openbittorrent.com%3A80&amp;tr=udp%3A%2F%2Fopen.demonii.com%3A1337&amp;tr=udp%3A%2F%2Ftracker.coppersurfer.tk%3A6969&amp;tr=udp%3A%2F%2Fexodus.desync.com%3A6969","seeders":1,"leechers":0,"uploader":"canc232","files":1,"time":1387725453,"description":"One Piece - 626 [HD 720p] [ENG SUBBED] [GWC] \nOne Piece Ep : 626 Caesar Goes Missing! The Pirate Alliance Makes a Sortie!\n\n\nTHUMBNAIL IMAGE : &lt;a href=&quot;\nhttp://img842.imageshack.us/img842/9523/s6gf.jpg&quot; rel=&quot;nofollow&quot; target=&quot;_NEW&quot;&gt;\nhttp://img842.imageshack.us/img842/9523/s6gf.jpg&lt;/a&gt;\n\n\nMEDIA INFO :\nGeneral \nFormat : Matroska  \nFile size : 75.3 MiB \nDuration : 20mn 42s \nOverall bit rate : 509 Kbps \nWriting application : mkvmerge v6.6.0 ('The Edge Of The In Between')\n\nVideo \nFormat : AVC \nFormat profile : &lt;a class=&quot;__cf_email__&quot; href=&quot;/cdn-cgi/l/email-protection&quot; data-cfemail=&quot;a1e9c8c6c9e1ed958f90&quot;&gt;[email&amp;#160;protected]&lt;/a&gt;&lt;script cf-hash='f9e31' type=&quot;text/javascript&quot;&gt;\n/* &lt;![CDATA[ */!function(){try{var t=&quot;currentScript&quot;in document?document.currentScript:function(){for(var t=document.getElementsByTagName(&quot;script&quot;),e=t.length;e--;)if(t[e].getAttribute(&quot;cf-hash&quot;))return t[e]}();if(t&amp;&amp;t.previousSibling){var e,r,n,i,c=t.previousSibling,a=c.getAttribute(&quot;data-cfemail&quot;);if(a){for(e=&quot;&quot;,r=parseInt(a.substr(0,2),16),n=2;a.length-n;n+=2)i=parseInt(a.substr(n,2),16)^r,e+=String.fromCharCode(i);e=document.createTextNode(e),c.parentNode.replaceChild(e,c)}}}catch(u){}}();/* ]]&gt; */&lt;/script&gt; \nFormat settings, CABAC : Yes \nFormat settings, ReFrames : 11 frames \nDuration : 20mn 42s \nBit rate : 442 Kbps \nWidth : 1 280 pixels \nHeight : 720 pixels \nDisplay aspect ratio : 16:9 \nFrame rate : 29.970 fps\nStream size : 65.5 MiB (87%) \nTitle : One Piece - 626 [HD 720p] [ENG SUBBED] [GWC] \nLanguage : English\n\nAudio \nFormat : Vorbis \nDuration : 20mn 42s \nBit rate mode : Variable \nChannel(s) : 2 channels \nSampling rate : 44.1 KHz \nStream size : 8.30 MiB\nWriting library : aoTuV \nLanguage : Japanese \n\nText \nFormat : UTF-8 \nCodec ID : S_TEXT/UTF8 \nTitle : [GWC] \nLanguage : English ","torrent":{"xt":"urn:btih:ef546ec45d98a484907f4ea327ad9d31b2d6225e","amp;dn":"One+Piece+-+626+%5BHD+720p%5D+%5BENG+SUBBED%5D+%5BGWC%5D.mkv","amp;tr":["udp%3A%2F%2Ftracker.openbittorrent.com%3A80","udp%3A%2F%2Fopen.demonii.com%3A1337","udp%3A%2F%2Ftracker.coppersurfer.tk%3A6969","udp%3A%2F%2Fexodus.desync.com%3A6969"],"infoHash":"ef546ec45d98a484907f4ea327ad9d31b2d6225e","infoHashBuffer":{"type":"Buffer","data":[239,84,110,196,93,152,164,132,144,127,78,163,39,173,157,49,178,214,34,94]},"announce":[],"urlList":[]}}